<svg width="419" height="419" viewBox="0 0 419 419" fill="none" xmlns="http://www.w3.org/2000/svg">
<circle cx="209.5" cy="209.5" r="209.5" fill="url(#paint0_linear_14_447)"/>
<circle cx="168" cy="108" r="15" fill="black"/>
<circle cx="250" cy="108" r="15" fill="black"/>
<path d="M161.307 156.5C155.615 156.5 150.908 161.15 151.906 166.754C152.645 170.905 153.832 174.973 155.453 178.887C158.393 185.985 162.702 192.434 168.134 197.866C173.566 203.298 180.015 207.607 187.113 210.547C194.211 213.487 201.818 215 209.5 215C217.182 215 224.789 213.487 231.887 210.547C238.985 207.607 245.434 203.298 250.866 197.866C256.298 192.434 260.607 185.985 263.547 178.887C265.168 174.973 266.355 170.905 267.094 166.754C268.092 161.15 263.385 156.5 257.693 156.5C252.001 156.5 247.522 161.197 245.993 166.68C245.584 168.145 245.087 169.587 244.502 170.998C242.598 175.595 239.808 179.771 236.29 183.29C232.771 186.808 228.595 189.598 223.998 191.502C219.402 193.406 214.475 194.386 209.5 194.386C204.525 194.386 199.598 193.406 195.002 191.502C190.405 189.598 186.229 186.808 182.71 183.29C179.192 179.771 176.402 175.595 174.498 170.998C173.913 169.587 173.416 168.145 173.007 166.68C171.478 161.197 166.999 156.5 161.307 156.5Z" fill="black"/>
<defs>
<linearGradient id="paint0_linear_14_447" x1="209.5" y1="0" x2="209.5" y2="419" gradientUnits="userSpaceOnUse">
<stop stop-color="#A9C3E6"/>
<stop offset="1" stop-color="#DAE6F7"/>
</linearGradient>
</defs>
</svg>
