<svg width="419" height="419" viewBox="0 0 419 419" fill="none" xmlns="http://www.w3.org/2000/svg">
<circle cx="209.5" cy="209.5" r="209.5" fill="url(#paint0_linear_14_477)"/>
<path d="M149.8 98C145.492 98 141.888 101.568 143.161 105.684C143.398 106.45 143.671 107.206 143.979 107.95C145.286 111.104 147.201 113.97 149.615 116.385C152.03 118.799 154.896 120.714 158.05 122.021C161.205 123.327 164.586 124 168 124C171.414 124 174.795 123.327 177.95 122.021C181.104 120.714 183.97 118.799 186.385 116.385C188.799 113.97 190.714 111.104 192.021 107.95C192.329 107.206 192.602 106.45 192.839 105.684C194.112 101.568 190.508 98 186.2 98H182.484C180.228 98 178.472 99.896 177.608 101.98C177.086 103.242 176.32 104.388 175.354 105.354C174.388 106.32 173.242 107.086 171.98 107.608C170.718 108.131 169.366 108.4 168 108.4C166.634 108.4 165.282 108.131 164.02 107.608C162.758 107.086 161.612 106.32 160.646 105.354C159.68 104.388 158.914 103.242 158.392 101.98C157.528 99.896 155.772 98 153.516 98H149.8Z" fill="black"/>
<path d="M231.8 98C227.492 98 223.888 101.568 225.161 105.684C225.398 106.45 225.671 107.206 225.979 107.95C227.286 111.104 229.201 113.97 231.615 116.385C234.03 118.799 236.896 120.714 240.05 122.021C243.205 123.327 246.586 124 250 124C253.414 124 256.795 123.327 259.95 122.021C263.104 120.714 265.97 118.799 268.385 116.385C270.799 113.97 272.714 111.104 274.021 107.95C274.329 107.206 274.602 106.45 274.839 105.684C276.112 101.568 272.508 98 268.2 98H264.484C262.228 98 260.472 99.896 259.608 101.98C259.086 103.242 258.32 104.388 257.354 105.354C256.388 106.32 255.242 107.086 253.98 107.608C252.718 108.131 251.366 108.4 250 108.4C248.634 108.4 247.282 108.131 246.02 107.608C244.758 107.086 243.612 106.32 242.646 105.354C241.68 104.388 240.914 103.242 240.392 101.98C239.528 99.896 237.772 98 235.516 98H231.8Z" fill="black"/>
<path d="M257.693 204.5C263.385 204.5 268.092 199.85 267.094 194.246C266.355 190.095 265.168 186.027 263.547 182.113C260.607 175.015 256.298 168.566 250.866 163.134C245.434 157.702 238.985 153.393 231.887 150.453C224.789 147.513 217.182 146 209.5 146C201.818 146 194.211 147.513 187.113 150.453C180.015 153.393 173.566 157.702 168.134 163.134C162.702 168.566 158.393 175.015 155.453 182.113C153.832 186.027 152.645 190.095 151.906 194.246C150.908 199.85 155.615 204.5 161.307 204.5C166.999 204.5 171.478 199.803 173.007 194.32C173.416 192.855 173.913 191.413 174.498 190.002C176.402 185.405 179.192 181.229 182.71 177.71C186.229 174.192 190.405 171.402 195.002 169.498C199.598 167.594 204.525 166.614 209.5 166.614C214.475 166.614 219.402 167.594 223.998 169.498C228.595 171.402 232.771 174.192 236.29 177.71C239.808 181.229 242.598 185.405 244.502 190.002C245.087 191.413 245.584 192.855 245.993 194.32C247.522 199.803 252.001 204.5 257.693 204.5Z" fill="black"/>
<defs>
<linearGradient id="paint0_linear_14_477" x1="209.5" y1="0" x2="209.5" y2="419" gradientUnits="userSpaceOnUse">
<stop stop-color="#F0C4DD"/>
<stop offset="1" stop-color="#FFDBF0"/>
</linearGradient>
</defs>
</svg>
