<svg width="972" height="972" viewBox="0 0 972 972" fill="none" xmlns="http://www.w3.org/2000/svg">
<path d="M825.689 431.559C812.924 349.956 742.094 287.324 656.859 287.324C624.795 287.324 593.983 296.185 567.259 312.711C526.602 244.467 453.408 202 372.094 202C246.48 202 144.281 304.073 144.281 429.532C144.281 430.309 144.281 431.115 144.31 431.892C63.5787 445.474 0 515.772 0 600.181C0 694.282 78.5403 770.83 172.758 770.83H799.242C893.46 770.83 972 694.282 972 600.181C972 515.052 907.392 444.308 825.689 431.559Z" fill="url(#paint0_linear_14_927)"/>
<path d="M307.755 579.41C297.338 586.435 294.506 600.662 302.537 610.325C321.546 633.198 344.906 652.18 371.34 666.127C404.5 683.622 441.469 692.651 478.96 692.41C516.451 692.169 553.302 682.667 586.234 664.748C612.487 650.463 635.601 631.182 654.315 608.067C662.221 598.302 659.207 584.113 648.701 577.221C638.196 570.329 624.193 573.372 616.045 582.937C601.612 599.88 584.15 614.082 564.487 624.781C538.141 639.116 508.661 646.719 478.668 646.911C448.675 647.104 419.1 639.881 392.572 625.885C372.774 615.439 355.13 601.462 340.481 584.706C332.211 575.246 318.171 572.384 307.755 579.41Z" fill="black"/>
<defs>
<linearGradient id="paint0_linear_14_927" x1="486" y1="202" x2="486" y2="770.83" gradientUnits="userSpaceOnUse">
<stop stop-color="#E8EEF5"/>
<stop offset="1" stop-color="#C2C8D0"/>
</linearGradient>
</defs>
</svg>
