<svg width="972" height="972" viewBox="0 0 972 972" fill="none" xmlns="http://www.w3.org/2000/svg">
<path d="M825.689 431.559C812.924 349.956 742.094 287.324 656.859 287.324C624.795 287.324 593.983 296.185 567.259 312.711C526.602 244.467 453.408 202 372.094 202C246.48 202 144.281 304.073 144.281 429.532C144.281 430.309 144.281 431.115 144.31 431.892C63.5787 445.474 0 515.772 0 600.181C0 694.282 78.5403 770.83 172.758 770.83H799.242C893.46 770.83 972 694.282 972 600.181C972 515.052 907.392 444.308 825.689 431.559Z" fill="url(#paint0_linear_14_925)"/>
<path d="M272.75 464.915C260.186 464.915 249.882 475.125 251.137 487.627C253.352 509.711 258.792 531.394 267.317 551.975C278.75 579.577 295.508 604.656 316.633 625.782C337.759 646.907 362.838 663.664 390.44 675.097C418.041 686.53 447.624 692.415 477.5 692.415C507.376 692.415 536.959 686.53 564.56 675.097C592.162 663.664 617.241 646.907 638.367 625.782C659.492 604.656 676.25 579.577 687.683 551.975C696.208 531.394 701.648 509.711 703.863 487.627C705.118 475.125 694.814 464.915 682.25 464.915C669.686 464.915 659.646 475.139 658.08 487.606C656.056 503.71 651.883 519.505 645.646 534.563C636.5 556.644 623.094 576.708 606.193 593.608C589.293 610.508 569.23 623.915 547.148 633.061C525.067 642.207 501.401 646.915 477.5 646.915C453.599 646.915 429.933 642.207 407.852 633.061C385.77 623.915 365.707 610.508 348.807 593.608C331.906 576.708 318.5 556.644 309.354 534.563C303.117 519.505 298.944 503.71 296.92 487.606C295.354 475.139 285.314 464.915 272.75 464.915Z" fill="black"/>
<defs>
<linearGradient id="paint0_linear_14_925" x1="486" y1="202" x2="486" y2="770.83" gradientUnits="userSpaceOnUse">
<stop stop-color="#F0C4DD"/>
<stop offset="1" stop-color="#FFDBF0"/>
</linearGradient>
</defs>
</svg>
