<svg width="972" height="972" viewBox="0 0 972 972" fill="none" xmlns="http://www.w3.org/2000/svg">
<path d="M825.689 431.559C812.924 349.956 742.094 287.324 656.859 287.324C624.795 287.324 593.983 296.185 567.259 312.711C526.602 244.467 453.408 202 372.094 202C246.48 202 144.281 304.073 144.281 429.532C144.281 430.309 144.281 431.115 144.31 431.892C63.5787 445.474 0 515.772 0 600.181C0 694.282 78.5403 770.83 172.758 770.83H799.242C893.46 770.83 972 694.282 972 600.181C972 515.052 907.392 444.308 825.689 431.559Z" fill="url(#paint0_linear_14_935)"/>
<path d="M647.245 640.42C657.662 633.394 660.494 619.167 652.463 609.504C633.454 586.631 610.094 567.649 583.66 553.702C550.5 536.207 513.531 527.179 476.04 527.419C438.549 527.66 401.698 537.162 368.766 555.082C342.513 569.367 319.399 588.647 300.685 611.762C292.778 621.528 295.793 635.717 306.299 642.608C316.804 649.5 330.807 646.457 338.955 636.893C353.388 619.95 370.85 605.747 390.513 595.048C416.859 580.713 446.339 573.111 476.332 572.918C506.324 572.726 535.9 579.949 562.428 593.945C582.226 604.391 599.869 618.368 614.519 635.124C622.789 644.583 636.829 647.446 647.245 640.42Z" fill="black"/>
<defs>
<linearGradient id="paint0_linear_14_935" x1="486" y1="202" x2="486" y2="770.83" gradientUnits="userSpaceOnUse">
<stop stop-color="#FA7A4D"/>
<stop offset="1" stop-color="#FFC9B7"/>
</linearGradient>
</defs>
</svg>
